<svg xmlns="http://www.w3.org/2000/svg" xmlns:xlink="http://www.w3.org/1999/xlink" width="300" viewBox="0 0 224.87999 225" height="300" preserveAspectRatio="xMidYMid meet"><defs><clipPath id="4e3e431966"><path d="M 12.304688 95.789062 L 46.78125 95.789062 L 46.78125 130.265625 L 12.304688 130.265625 Z M 12.304688 95.789062 " clip-rule="nonzero"></path></clipPath><clipPath id="b6fa9a26e8"><path d="M 38.898438 122.386719 C 33.738281 127.542969 25.351562 127.542969 20.195312 122.386719 C 17.695312 119.886719 16.316406 116.558594 16.320312 113.023438 L 16.320312 99.808594 L 29.539062 99.808594 C 33.074219 99.804688 36.394531 101.179688 38.898438 103.683594 C 44.054688 108.839844 44.054688 117.226562 38.898438 122.386719 M 41.667969 100.914062 C 38.425781 97.675781 34.117188 95.890625 29.539062 95.894531 L 12.40625 95.894531 L 12.40625 113.019531 C 12.402344 117.601562 14.1875 121.910156 17.425781 125.152344 C 24.113281 131.835938 34.984375 131.835938 41.667969 125.152344 C 48.355469 118.46875 48.351562 107.59375 41.667969 100.914062 " clip-rule="nonzero"></path></clipPath><clipPath id="5dd809c2a9"><path d="M 19.835938 103.324219 L 39.101562 103.324219 L 39.101562 122.589844 L 19.835938 122.589844 Z M 19.835938 103.324219 " clip-rule="nonzero"></path></clipPath><clipPath id="3904f7230b"><path d="M 36.253906 106.25 C 34.390625 104.382812 31.945312 103.453125 29.5 103.453125 L 19.964844 103.453125 L 19.96875 112.988281 C 19.964844 115.433594 20.898438 117.878906 22.761719 119.742188 C 26.488281 123.472656 32.53125 123.472656 36.253906 119.742188 C 39.980469 116.015625 39.984375 109.976562 36.253906 106.25 " clip-rule="nonzero"></path></clipPath><clipPath id="676918f825"><path d="M 57.222656 124.835938 L 57.875 124.835938 L 57.875 129.644531 L 57.222656 129.644531 Z M 57.222656 129.644531 L 60.457031 129.644531 L 60.457031 130.25 L 57.222656 130.25 Z M 57.222656 129.644531 " clip-rule="nonzero"></path></clipPath><clipPath id="a68ad88049"><path d="M 60.988281 124.691406 L 65.699219 124.691406 L 65.699219 130.394531 L 60.988281 130.394531 Z M 60.988281 124.691406 " clip-rule="nonzero"></path></clipPath><clipPath id="7e3159b2fe"><path d="M 63.332031 129.773438 C 64.519531 129.773438 65.019531 128.632812 65.019531 127.542969 C 65.019531 126.449219 64.519531 125.3125 63.332031 125.3125 C 62.144531 125.3125 61.644531 126.449219 61.644531 127.542969 C 61.644531 128.632812 62.144531 129.773438 63.332031 129.773438 M 63.332031 124.703125 C 64.882812 124.703125 65.667969 126.070312 65.667969 127.542969 C 65.667969 129.011719 64.882812 130.378906 63.332031 130.378906 C 61.78125 130.378906 60.996094 129.015625 60.996094 127.542969 C 60.996094 126.066406 61.78125 124.703125 63.332031 124.703125 " clip-rule="nonzero"></path></clipPath><clipPath id="3a22137a64"><path d="M 66.460938 124.691406 L 70.835938 124.691406 L 70.835938 130.394531 L 66.460938 130.394531 Z M 66.460938 124.691406 " clip-rule="nonzero"></path></clipPath><clipPath id="89714be866"><path d="M 70.132812 126.464844 C 69.996094 125.695312 69.441406 125.3125 68.769531 125.3125 C 67.609375 125.3125 67.117188 126.375 67.117188 127.503906 C 67.117188 128.742188 67.609375 129.773438 68.777344 129.773438 C 69.632812 129.773438 70.125 129.105469 70.183594 128.210938 L 70.835938 128.210938 C 70.710938 129.5625 69.953125 130.378906 68.722656 130.378906 C 67.207031 130.378906 66.46875 129.136719 66.46875 127.558594 C 66.464844 125.988281 67.273438 124.703125 68.773438 124.703125 C 69.792969 124.703125 70.632812 125.3125 70.785156 126.464844 Z M 70.132812 126.464844 " clip-rule="nonzero"></path></clipPath><clipPath id="719ce8151d"><path d="M 71.300781 124.824219 L 75.839844 124.824219 L 75.839844 130.261719 L 71.300781 130.261719 Z M 71.300781 124.824219 " clip-rule="nonzero"></path></clipPath><clipPath id="c79f382681"><path d="M 72.722656 128.011719 L 74.375 128.011719 L 73.5625 125.484375 L 73.550781 125.484375 Z M 73.207031 124.835938 L 73.925781 124.835938 L 75.832031 130.25 L 75.117188 130.25 L 74.582031 128.621094 L 72.519531 128.621094 L 71.972656 130.25 L 71.300781 130.25 Z M 73.207031 124.835938 " clip-rule="nonzero"></path></clipPath><clipPath id="9a2f73fe22"><path d="M 76.554688 124.835938 L 77.203125 124.835938 L 77.203125 129.644531 L 76.554688 129.644531 Z M 76.554688 129.644531 L 79.789062 129.644531 L 79.789062 130.25 L 76.554688 130.25 Z M 76.554688 129.644531 " clip-rule="nonzero"></path></clipPath><clipPath id="0718d3106b"><path d="M 82.238281 124.824219 L 86.816406 124.824219 L 86.816406 130.261719 L 82.238281 130.261719 Z M 82.238281 124.824219 " clip-rule="nonzero"></path></clipPath><clipPath id="b16f01d609"><path d="M 83.6875 128.011719 L 85.339844 128.011719 L 84.527344 125.484375 L 84.511719 125.484375 Z M 84.171875 124.835938 L 84.890625 124.835938 L 86.796875 130.25 L 86.078125 130.25 L 85.542969 128.621094 L 83.480469 128.621094 L 82.933594 130.25 L 82.265625 130.25 Z M 84.171875 124.835938 " clip-rule="nonzero"></path></clipPath><clipPath id="81a515969b"><path d="M 87.542969 124.824219 L 91.222656 124.824219 L 91.222656 130.261719 L 87.542969 130.261719 Z M 87.542969 124.824219 " clip-rule="nonzero"></path></clipPath><clipPath id="c6c32e1106"><path d="M 88.207031 127.429688 L 89.476562 127.429688 C 90.207031 127.4375 90.542969 127.082031 90.542969 126.433594 C 90.542969 125.785156 90.207031 125.4375 89.476562 125.4375 L 88.207031 125.4375 Z M 87.558594 124.835938 L 89.695312 124.835938 C 90.667969 124.835938 91.191406 125.433594 91.191406 126.433594 C 91.191406 127.433594 90.667969 128.042969 89.695312 128.03125 L 88.207031 128.03125 L 88.207031 130.25 L 87.558594 130.25 Z M 87.558594 124.835938 " clip-rule="nonzero"></path></clipPath><clipPath id="e0deb6519b"><path d="M 92.25 124.824219 L 95.929688 124.824219 L 95.929688 130.261719 L 92.25 130.261719 Z M 92.25 124.824219 " clip-rule="nonzero"></path></clipPath><clipPath id="d1f06da486"><path d="M 92.921875 127.429688 L 94.191406 127.429688 C 94.921875 127.4375 95.257812 127.082031 95.257812 126.433594 C 95.257812 125.785156 94.921875 125.4375 94.191406 125.4375 L 92.921875 125.4375 Z M 92.269531 124.835938 L 94.410156 124.835938 C 95.378906 124.835938 95.90625 125.433594 95.90625 126.433594 C 95.90625 127.433594 95.378906 128.042969 94.410156 128.03125 L 92.921875 128.03125 L 92.921875 130.25 L 92.269531 130.25 Z M 92.269531 124.835938 " clip-rule="nonzero"></path></clipPath><clipPath id="057dffa948"><path d="M 96.957031 124.824219 L 100.9375 124.824219 L 100.9375 130.261719 L 96.957031 130.261719 Z M 96.957031 124.824219 " clip-rule="nonzero"></path></clipPath><clipPath id="a8bfad2683"><path d="M 98.988281 127.332031 C 99.59375 127.332031 100.113281 127.15625 100.113281 126.367188 C 100.113281 125.835938 99.855469 125.441406 99.246094 125.441406 L 97.632812 125.441406 L 97.632812 127.332031 Z M 96.984375 124.835938 L 99.28125 124.835938 C 100.199219 124.835938 100.761719 125.386719 100.761719 126.253906 C 100.761719 126.90625 100.503906 127.445312 99.917969 127.628906 L 99.917969 127.640625 C 100.480469 127.761719 100.601562 128.226562 100.648438 128.757812 C 100.691406 129.289062 100.664062 129.878906 100.933594 130.253906 L 100.210938 130.253906 C 100.023438 130.035156 100.128906 129.449219 100.03125 128.917969 C 99.964844 128.386719 99.847656 127.941406 99.21875 127.941406 L 97.632812 127.941406 L 97.632812 130.253906 L 96.984375 130.253906 Z M 96.984375 124.835938 " clip-rule="nonzero"></path></clipPath><clipPath id="6561845810"><path d="M 101.667969 124.691406 L 106.375 124.691406 L 106.375 130.394531 L 101.667969 130.394531 Z M 101.667969 124.691406 " clip-rule="nonzero"></path></clipPath><clipPath id="3ee887490d"><path d="M 104.015625 129.773438 C 105.203125 129.773438 105.703125 128.632812 105.703125 127.542969 C 105.703125 126.449219 105.203125 125.3125 104.015625 125.3125 C 102.828125 125.3125 102.328125 126.449219 102.328125 127.542969 C 102.328125 128.632812 102.828125 129.773438 104.015625 129.773438 M 104.015625 124.703125 C 105.566406 124.703125 106.351562 126.070312 106.351562 127.542969 C 106.351562 129.011719 105.566406 130.378906 104.015625 130.378906 C 102.464844 130.378906 101.679688 129.015625 101.679688 127.542969 C 101.679688 126.066406 102.464844 124.703125 104.015625 124.703125 " clip-rule="nonzero"></path></clipPath><clipPath id="3687de03b4"><path d="M 106.871094 124.824219 L 111.113281 124.824219 L 111.113281 130.261719 L 106.871094 130.261719 Z M 106.871094 124.824219 " clip-rule="nonzero"></path></clipPath><clipPath id="ad18147f93"><path d="M 109.351562 130.25 L 108.613281 130.25 L 106.886719 124.835938 L 107.589844 124.835938 L 108.984375 129.53125 L 109 129.53125 L 110.40625 124.835938 L 111.085938 124.835938 Z M 109.351562 130.25 " clip-rule="nonzero"></path></clipPath><clipPath id="a977ec85dc"><path d="M 111.890625 124.835938 L 115.257812 124.835938 L 115.257812 125.441406 L 111.890625 125.441406 Z M 111.890625 125.441406 L 112.535156 125.441406 L 112.535156 127.164062 L 111.890625 127.164062 Z M 111.890625 127.164062 L 115.070312 127.164062 L 115.070312 127.773438 L 111.890625 127.773438 Z M 111.890625 127.773438 L 112.535156 127.773438 L 112.535156 129.648438 L 111.890625 129.648438 Z M 111.890625 129.648438 L 115.277344 129.648438 L 115.277344 130.253906 L 111.890625 130.253906 Z M 111.890625 129.648438 " clip-rule="nonzero"></path></clipPath><clipPath id="9753d4192a"><path d="M 116.320312 124.824219 L 120.398438 124.824219 L 120.398438 130.261719 L 116.320312 130.261719 Z M 116.320312 124.824219 " clip-rule="nonzero"></path></clipPath><clipPath id="22380aa9e5"><path d="M 117 129.644531 L 118.078125 129.644531 C 118.523438 129.644531 119.71875 129.507812 119.71875 127.511719 C 119.71875 126.222656 119.289062 125.441406 118.089844 125.441406 L 116.996094 125.441406 Z M 116.351562 124.835938 L 118.023438 124.835938 C 119.527344 124.835938 120.367188 125.667969 120.367188 127.414062 C 120.367188 129.226562 119.652344 130.253906 118.023438 130.253906 L 116.351562 130.253906 Z M 116.351562 124.835938 " clip-rule="nonzero"></path></clipPath><clipPath id="448460088d"><path d="M 123.679688 124.824219 L 127.359375 124.824219 L 127.359375 130.261719 L 123.679688 130.261719 Z M 123.679688 124.824219 " clip-rule="nonzero"></path></clipPath><clipPath id="7d5dd40d58"><path d="M 124.34375 127.429688 L 125.613281 127.429688 C 126.34375 127.4375 126.679688 127.082031 126.679688 126.433594 C 126.679688 125.785156 126.34375 125.4375 125.613281 125.4375 L 124.34375 125.4375 Z M 123.691406 124.835938 L 125.832031 124.835938 C 126.800781 124.835938 127.328125 125.433594 127.328125 126.433594 C 127.328125 127.433594 126.800781 128.042969 125.832031 128.03125 L 124.34375 128.03125 L 124.34375 130.25 L 123.691406 130.25 Z M 123.691406 124.835938 " clip-rule="nonzero"></path></clipPath><clipPath id="e1d73a1c81"><path d="M 128.464844 124.835938 L 129.117188 124.835938 L 129.117188 129.644531 L 128.464844 129.644531 Z M 128.464844 129.644531 L 131.703125 129.644531 L 131.703125 130.25 L 128.464844 130.25 Z M 128.464844 129.644531 " clip-rule="nonzero"></path></clipPath><clipPath id="3d88a15313"><path d="M 132.566406 124.824219 L 136.507812 124.824219 L 136.507812 130.394531 L 132.566406 130.394531 Z M 132.566406 124.824219 " clip-rule="nonzero"></path></clipPath><clipPath id="845e1af5f1"><path d="M 136.507812 128.292969 C 136.507812 129.660156 135.804688 130.378906 134.589844 130.378906 C 133.332031 130.378906 132.585938 129.734375 132.585938 128.292969 L 132.585938 124.835938 L 133.238281 124.835938 L 133.238281 128.292969 C 133.238281 129.25 133.730469 129.773438 134.589844 129.773438 C 135.410156 129.773438 135.859375 129.25 135.859375 128.292969 L 135.859375 124.835938 L 136.507812 124.835938 Z M 136.507812 128.292969 " clip-rule="nonzero"></path></clipPath><clipPath id="40ad69c650"><path d="M 137.902344 124.824219 L 142.773438 124.824219 L 142.773438 130.261719 L 137.902344 130.261719 Z M 137.902344 124.824219 " clip-rule="nonzero"></path></clipPath><clipPath id="cb6f75cfa4"><path d="M 137.910156 124.835938 L 138.796875 124.835938 L 140.335938 129.386719 L 141.878906 124.835938 L 142.765625 124.835938 L 142.765625 130.25 L 142.148438 130.25 L 142.148438 125.746094 L 142.136719 125.746094 L 140.613281 130.25 L 140.058594 130.25 L 138.535156 125.746094 L 138.519531 125.746094 L 138.519531 130.25 L 137.910156 130.25 Z M 137.910156 124.835938 " clip-rule="nonzero"></path></clipPath><clipPath id="7f21c5db19"><path d="M 144.167969 124.824219 L 148.046875 124.824219 L 148.046875 130.261719 L 144.167969 130.261719 Z M 144.167969 124.824219 " clip-rule="nonzero"></path></clipPath><clipPath id="b2d78a4a8e"><path d="M 144.839844 129.644531 L 146.464844 129.644531 C 147.023438 129.644531 147.382812 129.265625 147.382812 128.675781 C 147.382812 127.96875 146.871094 127.773438 146.320312 127.773438 L 144.839844 127.773438 Z M 144.839844 127.160156 L 146.140625 127.160156 C 146.875 127.160156 147.179688 126.867188 147.179688 126.296875 C 147.179688 125.546875 146.703125 125.4375 146.140625 125.4375 L 144.839844 125.4375 Z M 144.191406 124.835938 L 145.960938 124.835938 C 146.390625 124.835938 146.960938 124.835938 147.253906 125.03125 C 147.574219 125.246094 147.824219 125.628906 147.824219 126.160156 C 147.824219 126.738281 147.554688 127.171875 147.101562 127.375 L 147.101562 127.390625 C 147.703125 127.527344 148.03125 128.027344 148.03125 128.695312 C 148.03125 129.488281 147.515625 130.25 146.546875 130.25 L 144.191406 130.25 Z M 144.191406 124.835938 " clip-rule="nonzero"></path></clipPath><clipPath id="b121a0717b"><path d="M 149.21875 124.835938 L 152.585938 124.835938 L 152.585938 125.441406 L 149.21875 125.441406 Z M 149.21875 125.441406 L 149.871094 125.441406 L 149.871094 127.164062 L 149.21875 127.164062 Z M 149.21875 127.164062 L 152.40625 127.164062 L 152.40625 127.773438 L 149.21875 127.773438 Z M 149.21875 127.773438 L 149.871094 127.773438 L 149.871094 129.648438 L 149.21875 129.648438 Z M 149.21875 129.648438 L 152.609375 129.648438 L 152.609375 130.253906 L 149.21875 130.253906 Z M 149.21875 129.648438 " clip-rule="nonzero"></path></clipPath><clipPath id="130e3bfe60"><path d="M 153.714844 124.824219 L 157.691406 124.824219 L 157.691406 130.261719 L 153.714844 130.261719 Z M 153.714844 124.824219 " clip-rule="nonzero"></path></clipPath><clipPath id="729f70dd7d"><path d="M 155.746094 127.332031 C 156.351562 127.332031 156.871094 127.15625 156.871094 126.367188 C 156.871094 125.835938 156.613281 125.441406 156.003906 125.441406 L 154.390625 125.441406 L 154.390625 127.332031 Z M 153.742188 124.835938 L 156.039062 124.835938 C 156.957031 124.835938 157.519531 125.386719 157.519531 126.253906 C 157.519531 126.90625 157.261719 127.445312 156.675781 127.628906 L 156.675781 127.640625 C 157.242188 127.761719 157.359375 128.226562 157.40625 128.757812 C 157.445312 129.289062 157.417969 129.878906 157.691406 130.253906 L 156.96875 130.253906 C 156.78125 130.035156 156.886719 129.449219 156.789062 128.917969 C 156.722656 128.386719 156.605469 127.941406 155.976562 127.941406 L 154.390625 127.941406 L 154.390625 130.253906 L 153.742188 130.253906 Z M 153.742188 124.835938 " clip-rule="nonzero"></path></clipPath><clipPath id="97d17d455a"><path d="M 158.488281 124.691406 L 162.433594 124.691406 L 162.433594 130.394531 L 158.488281 130.394531 Z M 158.488281 124.691406 " clip-rule="nonzero"></path></clipPath><clipPath id="eab2960c84"><path d="M 161.589844 126.417969 C 161.515625 125.648438 161.050781 125.3125 160.382812 125.3125 C 159.835938 125.3125 159.289062 125.53125 159.289062 126.238281 C 159.289062 126.90625 160.066406 127.003906 160.855469 127.199219 C 161.632812 127.398438 162.410156 127.703125 162.410156 128.765625 C 162.410156 129.917969 161.394531 130.378906 160.507812 130.378906 C 159.414062 130.378906 158.492188 129.785156 158.492188 128.46875 L 159.105469 128.46875 C 159.105469 129.378906 159.789062 129.773438 160.527344 129.773438 C 161.113281 129.773438 161.761719 129.566406 161.761719 128.785156 C 161.761719 128.042969 160.984375 127.914062 160.207031 127.722656 C 159.425781 127.53125 158.640625 127.28125 158.640625 126.289062 C 158.640625 125.191406 159.523438 124.703125 160.40625 124.703125 C 161.40625 124.703125 162.164062 125.226562 162.203125 126.417969 Z M 161.589844 126.417969 " clip-rule="nonzero"></path></clipPath><clipPath id="2d9f969083"><path d="M 144.738281 94.859375 L 162 94.859375 L 162 119.152344 L 144.738281 119.152344 Z M 144.738281 94.859375 " clip-rule="nonzero"></path></clipPath><clipPath id="b30885a0f1"><path d="M 153.335938 119.09375 C 150.066406 119.09375 146.828125 118.71875 145.332031 118.347656 L 145.332031 112.867188 L 148.851562 112.867188 L 149.164062 114.734375 C 150.347656 114.796875 151.5 114.796875 152.617188 114.796875 C 155.109375 114.796875 156.199219 114.046875 156.199219 112.335938 C 156.199219 111.058594 155.609375 110.5 153.488281 109.566406 L 150.128906 108.070312 C 146.859375 106.609375 144.742188 104.957031 144.742188 101.34375 C 144.742188 96.738281 147.917969 94.898438 153.769531 94.898438 C 156.820312 94.898438 159.902344 95.398438 161.242188 95.710938 L 161.242188 101.003906 L 157.726562 101.003906 L 157.382812 99.230469 C 156.324219 99.167969 155.078125 99.140625 154.082031 99.140625 C 151.683594 99.140625 150.46875 99.636719 150.46875 101.195312 C 150.46875 102.347656 151.03125 102.84375 153.117188 103.777344 L 156.355469 105.210938 C 160.121094 106.859375 161.988281 108.386719 161.988281 112.03125 C 161.988281 116.703125 158.71875 119.097656 153.335938 119.097656 " clip-rule="nonzero"></path></clipPath><clipPath id="f0de2df29e"><path d="M 163.683594 100.320312 L 180.960938 100.320312 L 180.960938 119 L 163.683594 119 Z M 163.683594 100.320312 " clip-rule="nonzero"></path></clipPath><clipPath id="82afc94a01"><path d="M 174.222656 110.75 L 172.417969 110.75 C 169.929688 110.75 168.867188 111.03125 168.867188 113.023438 L 168.867188 113.738281 C 168.867188 115.109375 169.707031 115.480469 170.890625 115.480469 C 172.292969 115.480469 173.664062 114.984375 174.222656 114.671875 Z M 174.503906 118.566406 L 174.503906 117.414062 C 173.320312 118.191406 171.265625 119 168.898438 119 C 165.566406 119 163.699219 117.320312 163.699219 113.925781 L 163.699219 113.210938 C 163.699219 108.476562 167.3125 107.949219 172.355469 107.949219 L 174.003906 107.949219 L 174.003906 106.980469 C 174.003906 104.832031 173.539062 104.398438 170.734375 104.398438 L 168.804688 104.460938 L 168.492188 105.828125 L 165.007812 105.828125 L 165.007812 101.378906 C 166 101.035156 168.867188 100.320312 171.855469 100.320312 C 177.398438 100.320312 179.453125 102.09375 179.453125 106.980469 L 179.453125 114.457031 L 180.855469 114.609375 L 180.855469 118.566406 L 174.5 118.566406 " clip-rule="nonzero"></path></clipPath><clipPath id="bcecc3e6ac"><path d="M 180.734375 93.742188 L 193.441406 93.742188 L 193.441406 118.597656 L 180.734375 118.597656 Z M 180.734375 93.742188 " clip-rule="nonzero"></path></clipPath><clipPath id="7c2bf4733e"><path d="M 189.199219 104.710938 L 189.199219 114.457031 L 190.632812 114.613281 L 190.632812 118.566406 L 182.347656 118.566406 L 182.347656 114.609375 L 183.777344 114.453125 L 183.777344 104.710938 L 180.820312 104.429688 L 180.820312 100.753906 L 183.777344 100.753906 L 183.777344 99.355469 C 183.777344 95.710938 185.210938 93.8125 189.164062 93.8125 C 190.78125 93.8125 192.308594 94.027344 193.367188 94.308594 L 193.367188 97.453125 C 192.371094 97.394531 191.625 97.363281 190.875 97.363281 C 189.316406 97.363281 189.195312 97.890625 189.195312 99.417969 L 189.195312 100.753906 L 193.335938 100.753906 L 193.335938 104.710938 L 189.199219 104.710938 " clip-rule="nonzero"></path></clipPath><clipPath id="583902796f"><path d="M 194.332031 100.320312 L 211.496094 100.320312 L 211.496094 119 L 194.332031 119 Z M 194.332031 100.320312 " clip-rule="nonzero"></path></clipPath><clipPath id="cfc3ae8526"><path d="M 206.101562 107.917969 C 206.101562 105.957031 205.695312 104.242188 202.921875 104.242188 C 200.214844 104.242188 199.777344 105.988281 199.777344 107.917969 L 199.777344 108.167969 L 206.097656 108.167969 Z M 199.75 111.15625 L 199.75 111.40625 C 199.75 113.679688 200.0625 114.894531 203.890625 114.894531 C 205.695312 114.894531 208.808594 114.769531 210.550781 114.582031 L 210.550781 118.222656 C 209.148438 118.566406 206.660156 119 203.640625 119 C 197.101562 119 194.359375 116.664062 194.359375 110.5625 L 194.359375 108.945312 C 194.359375 103.027344 197.507812 100.320312 202.921875 100.320312 C 209.554688 100.320312 211.394531 104.617188 211.394531 109.316406 L 211.394531 111.15625 L 199.75 111.15625 " clip-rule="nonzero"></path></clipPath><clipPath id="0fc22ef2c9"><path d="M 208.597656 95.859375 L 213.277344 95.859375 L 213.277344 100.429688 L 208.597656 100.429688 Z M 208.597656 95.859375 " clip-rule="nonzero"></path></clipPath><clipPath id="ef9bf3d0a8"><path d="M 210.601562 98.042969 L 210.84375 98.042969 C 211.125 98.042969 211.355469 97.945312 211.355469 97.71875 C 211.355469 97.515625 211.203125 97.382812 210.882812 97.382812 L 210.652344 97.394531 Z M 210.585938 99.296875 L 210.074219 99.296875 L 210.074219 97.082031 C 210.277344 97.042969 210.5625 97.015625 210.921875 97.015625 C 211.34375 97.015625 211.53125 97.082031 211.695312 97.179688 L 211.910156 97.449219 C 211.910156 97.90625 211.722656 98.097656 211.453125 98.175781 L 211.453125 98.207031 C 211.667969 98.285156 211.789062 98.445312 211.855469 98.746094 C 211.925781 99.082031 211.964844 99.21875 212.019531 99.300781 L 211.464844 99.300781 C 211.394531 99.21875 211.355469 99.015625 211.289062 98.757812 C 211.25 98.515625 211.113281 98.40625 210.832031 98.40625 L 210.589844 98.40625 Z M 209.222656 98.136719 C 209.222656 99.117188 209.949219 99.902344 210.949219 99.902344 C 211.921875 99.902344 212.636719 99.117188 212.636719 98.148438 C 212.636719 97.164062 211.921875 96.367188 210.933594 96.367188 C 209.949219 96.367188 209.21875 97.164062 209.21875 98.136719 M 213.199219 98.136719 C 213.199219 99.390625 212.214844 100.375 210.933594 100.375 C 209.664062 100.375 208.652344 99.390625 208.652344 98.136719 C 208.652344 96.90625 209.664062 95.921875 210.933594 95.921875 C 212.214844 95.921875 213.199219 96.910156 213.199219 98.136719 " clip-rule="nonzero"></path></clipPath><clipPath id="8ff2740dec"><path d="M 52.347656 95.859375 L 82.996094 95.859375 L 82.996094 119.152344 L 52.347656 119.152344 Z M 52.347656 95.859375 " clip-rule="nonzero"></path></clipPath><clipPath id="a044ee4aad"><path d="M 82.898438 95.890625 L 82.898438 99.921875 L 81.363281 100.078125 L 78.117188 119.09375 L 71.058594 119.09375 L 68.34375 108.945312 C 68.0625 107.882812 67.875 106.476562 67.71875 105.480469 L 67.625 105.480469 C 67.4375 106.476562 67.28125 107.882812 67 108.945312 L 64.3125 119.09375 L 57.195312 119.09375 L 53.949219 100.078125 L 52.417969 99.921875 L 52.417969 95.890625 L 61.191406 95.890625 L 61.191406 99.921875 L 59.726562 100.078125 L 61.007812 108.324219 C 61.257812 109.882812 61.382812 111.351562 61.539062 112.722656 L 61.664062 112.722656 C 61.972656 111.410156 62.035156 110.007812 62.414062 108.664062 L 64.628906 100.792969 L 70.746094 100.792969 L 72.964844 108.726562 C 73.339844 110.070312 73.433594 111.507812 73.683594 112.722656 L 73.804688 112.722656 C 73.933594 111.378906 74.085938 109.914062 74.335938 108.324219 L 75.617188 100.078125 L 74.148438 99.921875 L 74.148438 95.890625 L 82.894531 95.890625 " clip-rule="nonzero"></path></clipPath><clipPath id="6cafb87bad"><path d="M 82.214844 100.765625 L 99.492188 100.765625 L 99.492188 119.597656 L 82.214844 119.597656 Z M 82.214844 100.765625 " clip-rule="nonzero"></path></clipPath><clipPath id="bc57c19ac6"><path d="M 92.773438 111.253906 L 90.964844 111.253906 C 88.464844 111.253906 87.40625 111.535156 87.40625 113.535156 L 87.40625 114.25 C 87.40625 115.625 88.25 116 89.433594 116 C 90.839844 116 92.214844 115.5 92.777344 115.1875 Z M 93.054688 119.09375 L 93.054688 117.9375 C 91.871094 118.71875 89.804688 119.53125 87.433594 119.53125 C 84.089844 119.53125 82.21875 117.84375 82.21875 114.4375 L 82.21875 113.726562 C 82.21875 108.976562 85.839844 108.445312 90.898438 108.445312 L 92.554688 108.445312 L 92.554688 107.480469 C 92.554688 105.324219 92.089844 104.886719 89.277344 104.886719 L 87.339844 104.949219 L 87.027344 106.324219 L 83.53125 106.324219 L 83.53125 101.855469 C 84.53125 101.515625 87.40625 100.792969 90.402344 100.792969 C 95.960938 100.792969 98.023438 102.574219 98.023438 107.480469 L 98.023438 114.972656 L 99.429688 115.128906 L 99.429688 119.09375 L 93.054688 119.09375 " clip-rule="nonzero"></path></clipPath><clipPath id="d7a303b2a4"><path d="M 99.378906 96.863281 L 111.972656 96.863281 L 111.972656 119.597656 L 99.378906 119.597656 Z M 99.378906 96.863281 " clip-rule="nonzero"></path></clipPath><clipPath id="8e5a992769"><path d="M 107.925781 119.53125 C 104.148438 119.53125 102.492188 118.066406 102.492188 114.066406 L 102.492188 105.199219 L 99.398438 104.917969 L 99.398438 101.234375 L 102.492188 101.234375 L 102.492188 96.921875 L 107.925781 96.921875 L 107.925781 101.234375 L 111.921875 101.234375 L 111.921875 105.199219 L 107.957031 105.199219 L 107.957031 114.007812 C 107.957031 115.441406 108.050781 115.753906 109.425781 115.753906 C 110.238281 115.753906 110.828125 115.691406 111.890625 115.628906 L 111.890625 119.0625 C 111.421875 119.1875 109.734375 119.53125 107.921875 119.53125 " clip-rule="nonzero"></path></clipPath><clipPath id="b4407484fb"><path d="M 112.863281 100.765625 L 130 100.765625 L 130 119.597656 L 112.863281 119.597656 Z M 112.863281 100.765625 " clip-rule="nonzero"></path></clipPath><clipPath id="a8a52fe118"><path d="M 124.6875 108.414062 C 124.6875 106.449219 124.28125 104.730469 121.503906 104.730469 C 118.789062 104.730469 118.347656 106.476562 118.347656 108.414062 L 118.347656 108.664062 L 124.6875 108.664062 Z M 118.316406 111.660156 L 118.316406 111.910156 C 118.316406 114.191406 118.628906 115.410156 122.46875 115.410156 C 124.28125 115.410156 127.402344 115.28125 129.152344 115.097656 L 129.152344 118.75 C 127.746094 119.09375 125.246094 119.53125 122.21875 119.53125 C 115.660156 119.53125 112.914062 117.191406 112.914062 111.070312 L 112.914062 109.445312 C 112.914062 103.511719 116.066406 100.792969 121.5 100.792969 C 128.152344 100.792969 129.996094 105.105469 129.996094 109.820312 L 129.996094 111.660156 L 118.316406 111.660156 " clip-rule="nonzero"></path></clipPath><clipPath id="acca7af338"><path d="M 130.917969 100.765625 L 143.402344 100.765625 L 143.402344 119.152344 L 130.917969 119.152344 Z M 130.917969 100.765625 " clip-rule="nonzero"></path></clipPath><clipPath id="ee11678b42"><path d="M 137.835938 106.226562 L 137.835938 114.972656 L 139.242188 115.128906 L 139.242188 119.09375 L 130.96875 119.09375 L 130.96875 115.128906 L 132.402344 114.96875 L 132.402344 105.355469 L 130.96875 105.195312 L 130.96875 101.234375 L 137.464844 101.234375 L 137.464844 102.730469 C 139.210938 101.105469 141.398438 100.792969 143.335938 100.792969 L 143.335938 105.449219 C 141.367188 105.449219 139.242188 105.792969 137.839844 106.230469 " clip-rule="nonzero"></path></clipPath></defs><g clip-path="url(#4e3e431966)"><g clip-path="url(#b6fa9a26e8)"><path fill="#a3bbe2" d="M 11 94.488281 L 48.085938 94.488281 L 48.085938 131.570312 L 11 131.570312 Z M 11 94.488281 " fill-opacity="1" fill-rule="nonzero"></path></g></g><g clip-path="url(#5dd809c2a9)"><g clip-path="url(#3904f7230b)"><path fill="#362782" d="M 11 94.488281 L 48.085938 94.488281 L 48.085938 131.570312 L 11 131.570312 Z M 11 94.488281 " fill-opacity="1" fill-rule="nonzero"></path></g></g><g clip-path="url(#676918f825)"><path fill="#362782" d="M 55.816406 123.300781 L 121.789062 123.300781 L 121.789062 131.785156 L 55.816406 131.785156 Z M 55.816406 123.300781 " fill-opacity="1" fill-rule="nonzero"></path></g><g clip-path="url(#a68ad88049)"><g clip-path="url(#7e3159b2fe)"><path fill="#362782" d="M 55.816406 123.300781 L 121.789062 123.300781 L 121.789062 131.785156 L 55.816406 131.785156 Z M 55.816406 123.300781 " fill-opacity="1" fill-rule="nonzero"></path></g></g><g clip-path="url(#3a22137a64)"><g clip-path="url(#89714be866)"><path fill="#362782" d="M 55.816406 123.300781 L 121.789062 123.300781 L 121.789062 131.785156 L 55.816406 131.785156 Z M 55.816406 123.300781 " fill-opacity="1" fill-rule="nonzero"></path></g></g><g clip-path="url(#719ce8151d)"><g clip-path="url(#c79f382681)"><path fill="#362782" d="M 55.816406 123.300781 L 121.789062 123.300781 L 121.789062 131.785156 L 55.816406 131.785156 Z M 55.816406 123.300781 " fill-opacity="1" fill-rule="nonzero"></path></g></g><g clip-path="url(#9a2f73fe22)"><path fill="#362782" d="M 55.816406 123.300781 L 121.789062 123.300781 L 121.789062 131.785156 L 55.816406 131.785156 Z M 55.816406 123.300781 " fill-opacity="1" fill-rule="nonzero"></path></g><g clip-path="url(#0718d3106b)"><g clip-path="url(#b16f01d609)"><path fill="#362782" d="M 55.816406 123.300781 L 121.789062 123.300781 L 121.789062 131.785156 L 55.816406 131.785156 Z M 55.816406 123.300781 " fill-opacity="1" fill-rule="nonzero"></path></g></g><g clip-path="url(#81a515969b)"><g clip-path="url(#c6c32e1106)"><path fill="#362782" d="M 55.816406 123.300781 L 121.789062 123.300781 L 121.789062 131.785156 L 55.816406 131.785156 Z M 55.816406 123.300781 " fill-opacity="1" fill-rule="nonzero"></path></g></g><g clip-path="url(#e0deb6519b)"><g clip-path="url(#d1f06da486)"><path fill="#362782" d="M 55.816406 123.300781 L 121.789062 123.300781 L 121.789062 131.785156 L 55.816406 131.785156 Z M 55.816406 123.300781 " fill-opacity="1" fill-rule="nonzero"></path></g></g><g clip-path="url(#057dffa948)"><g clip-path="url(#a8bfad2683)"><path fill="#362782" d="M 55.816406 123.300781 L 121.789062 123.300781 L 121.789062 131.785156 L 55.816406 131.785156 Z M 55.816406 123.300781 " fill-opacity="1" fill-rule="nonzero"></path></g></g><g clip-path="url(#6561845810)"><g clip-path="url(#3ee887490d)"><path fill="#362782" d="M 55.816406 123.300781 L 121.789062 123.300781 L 121.789062 131.785156 L 55.816406 131.785156 Z M 55.816406 123.300781 " fill-opacity="1" fill-rule="nonzero"></path></g></g><g clip-path="url(#3687de03b4)"><g clip-path="url(#ad18147f93)"><path fill="#362782" d="M 55.816406 123.300781 L 121.789062 123.300781 L 121.789062 131.785156 L 55.816406 131.785156 Z M 55.816406 123.300781 " fill-opacity="1" fill-rule="nonzero"></path></g></g><g clip-path="url(#a977ec85dc)"><path fill="#362782" d="M 55.816406 123.300781 L 121.789062 123.300781 L 121.789062 131.785156 L 55.816406 131.785156 Z M 55.816406 123.300781 " fill-opacity="1" fill-rule="nonzero"></path></g><g clip-path="url(#9753d4192a)"><g clip-path="url(#22380aa9e5)"><path fill="#362782" d="M 55.816406 123.300781 L 121.789062 123.300781 L 121.789062 131.785156 L 55.816406 131.785156 Z M 55.816406 123.300781 " fill-opacity="1" fill-rule="nonzero"></path></g></g><g clip-path="url(#448460088d)"><g clip-path="url(#7d5dd40d58)"><path fill="#362782" d="M 122.289062 123.300781 L 163.824219 123.300781 L 163.824219 131.785156 L 122.289062 131.785156 Z M 122.289062 123.300781 " fill-opacity="1" fill-rule="nonzero"></path></g></g><g clip-path="url(#e1d73a1c81)"><path fill="#362782" d="M 122.289062 123.300781 L 163.824219 123.300781 L 163.824219 131.785156 L 122.289062 131.785156 Z M 122.289062 123.300781 " fill-opacity="1" fill-rule="nonzero"></path></g><g clip-path="url(#3d88a15313)"><g clip-path="url(#845e1af5f1)"><path fill="#362782" d="M 122.289062 123.300781 L 163.824219 123.300781 L 163.824219 131.785156 L 122.289062 131.785156 Z M 122.289062 123.300781 " fill-opacity="1" fill-rule="nonzero"></path></g></g><g clip-path="url(#40ad69c650)"><g clip-path="url(#cb6f75cfa4)"><path fill="#362782" d="M 122.289062 123.300781 L 163.824219 123.300781 L 163.824219 131.785156 L 122.289062 131.785156 Z M 122.289062 123.300781 " fill-opacity="1" fill-rule="nonzero"></path></g></g><g clip-path="url(#7f21c5db19)"><g clip-path="url(#b2d78a4a8e)"><path fill="#362782" d="M 122.289062 123.300781 L 163.824219 123.300781 L 163.824219 131.785156 L 122.289062 131.785156 Z M 122.289062 123.300781 " fill-opacity="1" fill-rule="nonzero"></path></g></g><g clip-path="url(#b121a0717b)"><path fill="#362782" d="M 122.289062 123.300781 L 163.824219 123.300781 L 163.824219 131.785156 L 122.289062 131.785156 Z M 122.289062 123.300781 " fill-opacity="1" fill-rule="nonzero"></path></g><g clip-path="url(#130e3bfe60)"><g clip-path="url(#729f70dd7d)"><path fill="#362782" d="M 122.289062 123.300781 L 163.824219 123.300781 L 163.824219 131.785156 L 122.289062 131.785156 Z M 122.289062 123.300781 " fill-opacity="1" fill-rule="nonzero"></path></g></g><g clip-path="url(#97d17d455a)"><g clip-path="url(#eab2960c84)"><path fill="#362782" d="M 122.289062 123.300781 L 163.824219 123.300781 L 163.824219 131.785156 L 122.289062 131.785156 Z M 122.289062 123.300781 " fill-opacity="1" fill-rule="nonzero"></path></g></g><g clip-path="url(#2d9f969083)"><g clip-path="url(#b30885a0f1)"><path fill="#362782" d="M 51.011719 92.40625 L 214.617188 92.40625 L 214.617188 120.9375 L 51.011719 120.9375 Z M 51.011719 92.40625 " fill-opacity="1" fill-rule="nonzero"></path></g></g><g clip-path="url(#f0de2df29e)"><g clip-path="url(#82afc94a01)"><path fill="#362782" d="M 51.011719 92.40625 L 214.617188 92.40625 L 214.617188 120.9375 L 51.011719 120.9375 Z M 51.011719 92.40625 " fill-opacity="1" fill-rule="nonzero"></path></g></g><g clip-path="url(#bcecc3e6ac)"><g clip-path="url(#7c2bf4733e)"><path fill="#362782" d="M 51.011719 92.40625 L 214.617188 92.40625 L 214.617188 120.9375 L 51.011719 120.9375 Z M 51.011719 92.40625 " fill-opacity="1" fill-rule="nonzero"></path></g></g><g clip-path="url(#583902796f)"><g clip-path="url(#cfc3ae8526)"><path fill="#362782" d="M 51.011719 92.40625 L 214.617188 92.40625 L 214.617188 120.9375 L 51.011719 120.9375 Z M 51.011719 92.40625 " fill-opacity="1" fill-rule="nonzero"></path></g></g><g clip-path="url(#0fc22ef2c9)"><g clip-path="url(#ef9bf3d0a8)"><path fill="#362782" d="M 51.011719 92.40625 L 214.617188 92.40625 L 214.617188 120.9375 L 51.011719 120.9375 Z M 51.011719 92.40625 " fill-opacity="1" fill-rule="nonzero"></path></g></g><g clip-path="url(#8ff2740dec)"><g clip-path="url(#a044ee4aad)"><path fill="#362782" d="M 51.011719 92.40625 L 214.617188 92.40625 L 214.617188 120.9375 L 51.011719 120.9375 Z M 51.011719 92.40625 " fill-opacity="1" fill-rule="nonzero"></path></g></g><g clip-path="url(#6cafb87bad)"><g clip-path="url(#bc57c19ac6)"><path fill="#362782" d="M 51.011719 92.40625 L 214.617188 92.40625 L 214.617188 120.9375 L 51.011719 120.9375 Z M 51.011719 92.40625 " fill-opacity="1" fill-rule="nonzero"></path></g></g><g clip-path="url(#d7a303b2a4)"><g clip-path="url(#8e5a992769)"><path fill="#362782" d="M 51.011719 92.40625 L 214.617188 92.40625 L 214.617188 120.9375 L 51.011719 120.9375 Z M 51.011719 92.40625 " fill-opacity="1" fill-rule="nonzero"></path></g></g><g clip-path="url(#b4407484fb)"><g clip-path="url(#a8a52fe118)"><path fill="#362782" d="M 51.011719 92.40625 L 214.617188 92.40625 L 214.617188 120.9375 L 51.011719 120.9375 Z M 51.011719 92.40625 " fill-opacity="1" fill-rule="nonzero"></path></g></g><g clip-path="url(#acca7af338)"><g clip-path="url(#ee11678b42)"><path fill="#362782" d="M 51.011719 92.40625 L 214.617188 92.40625 L 214.617188 120.9375 L 51.011719 120.9375 Z M 51.011719 92.40625 " fill-opacity="1" fill-rule="nonzero"></path></g></g></svg>